<svg width="30" height="30" viewBox="0 0 30 30" fill="none" xmlns="http://www.w3.org/2000/svg">
    <path d="M27.6637 14.9681C27.6637 14.58 27.3487 14.265 26.9606 14.265H3.03843C2.65031 14.265 2.33531 14.58 2.33531 14.9681C2.32687 15.1397 2.32124 15.3403 2.32124 15.5419C2.32124 20.4131 5.24624 24.6009 9.43593 26.445L9.51187 26.475V28.125C9.51187 28.5131 9.82687 28.8281 10.215 28.8281H19.7841C20.1722 28.8281 20.4872 28.5131 20.4872 28.125V26.4741C24.7528 24.6 27.6769 20.4122 27.6769 15.5419C27.6769 15.3403 27.6722 15.1397 27.6619 14.94L27.6637 14.9681ZM19.5262 25.38L19.5197 25.3837C19.4625 25.4109 19.4128 25.4438 19.3687 25.4813L19.3697 25.4803C19.3387 25.4981 19.3125 25.5159 19.2872 25.5356L19.2891 25.5347C19.2694 25.5591 19.2506 25.5863 19.2337 25.6144L19.2319 25.6172C19.1962 25.6575 19.1653 25.7034 19.14 25.7522L19.1381 25.7559C19.1316 25.7784 19.125 25.8066 19.1203 25.8356L19.1194 25.8403C19.0997 25.8947 19.0866 25.9575 19.0819 26.0231V26.025L19.08 26.0334V27.4209H10.9172V26.0334L10.9153 26.0231C10.9106 25.9688 10.8994 25.92 10.8844 25.8722L10.8853 25.8769C10.8787 25.8309 10.8694 25.7887 10.8572 25.7494L10.8591 25.7541C10.8422 25.7259 10.8262 25.7016 10.8084 25.6791L10.8094 25.6809C10.7803 25.6247 10.7466 25.5759 10.7072 25.5328L10.7081 25.5338C10.6912 25.5169 10.6678 25.5084 10.6491 25.4944C10.5994 25.4513 10.5431 25.4137 10.4822 25.3856L10.4775 25.3837L10.4719 25.38C6.52968 23.8369 3.78374 20.0775 3.75843 15.6741V15.6713H26.2397C26.2144 20.0784 23.4684 23.8378 19.5966 25.3556L19.5262 25.38ZM19.8872 11.625C20.0137 11.8219 20.2322 11.9503 20.4806 11.9503C20.8697 11.9503 21.1837 11.6353 21.1837 11.2463C21.1837 11.1084 21.1434 10.9791 21.075 10.8703L21.0769 10.8731L19.6706 8.64469L26.3409 6.28594C26.6166 6.18656 26.8097 5.92688 26.8097 5.62313C26.8097 5.38031 26.6869 5.16563 26.4994 5.04L26.4966 5.03813L20.8716 1.28813C20.7609 1.21125 20.6231 1.16531 20.475 1.16531C20.0869 1.16531 19.7719 1.48031 19.7719 1.86844C19.7719 2.11406 19.8975 2.33063 20.0887 2.45625L20.0916 2.45813L24.5466 5.42906L18.3722 7.61156C18.0966 7.71094 17.9025 7.96969 17.9025 8.27438C17.9025 8.41313 17.9428 8.54344 18.0131 8.65219L18.0112 8.64938L19.8872 11.625ZM7.60031 11.625C7.72687 11.8238 7.94624 11.9531 8.19562 11.9531C8.58468 11.9531 8.89968 11.6381 8.89968 11.2491C8.89968 11.1094 8.85937 10.98 8.78906 10.8713L8.79093 10.8741L7.38468 8.64563L14.055 6.28688C14.3306 6.1875 14.5237 5.92781 14.5237 5.62406C14.5237 5.38125 14.4009 5.16656 14.2134 5.04094L14.2106 5.03906L8.58562 1.28906C8.47499 1.21219 8.33718 1.16625 8.18906 1.16625C7.80093 1.16625 7.48593 1.48125 7.48593 1.86938C7.48593 2.115 7.61156 2.33156 7.80281 2.45719L7.80562 2.45906L12.2616 5.43L6.08624 7.6125C5.81062 7.71188 5.61656 7.97063 5.61656 8.27531C5.61656 8.41406 5.65687 8.54438 5.72718 8.65313L5.72531 8.65031L7.60031 11.625Z" fill="#FFAE00"/>
</svg>
