<svg width="29" height="30" viewBox="0 0 29 30" fill="none" xmlns="http://www.w3.org/2000/svg">
    <path d="M28.4751 21.8643C27.9834 21.7042 27.4774 21.5626 26.9714 21.4215C27.7612 19.5858 26.733 17.6846 24.858 17.1142C24.3744 16.9671 23.8734 16.9199 23.3806 16.9569C23.2888 16.042 22.7491 15.2096 22.009 14.6904C22.3787 13.1541 20.8499 11.4595 19.531 11.0594C18.282 10.6803 17.1096 11.1251 16.2767 11.9838C16.1965 11.6992 16.095 11.4345 15.9836 11.2217C15.4964 10.2898 14.5208 9.70972 13.571 9.41823C11.6961 8.84263 9.34894 9.77998 9.65113 12.1139C9.65411 12.1371 9.66364 12.1548 9.67004 12.1751C9.58843 12.1864 9.50681 12.1927 9.4255 12.2124C8.38893 9.54595 7.53362 6.75671 6.06425 4.30057C5.4517 3.27664 3.41103 1.33878 2.4744 3.14044C1.69608 4.63782 3.61418 7.16422 4.3429 8.27027C5.40672 9.88459 6.68068 11.7238 8.25176 12.8871C7.79127 13.413 7.65827 14.1347 7.72618 14.8534C7.0274 14.3185 6.15823 14.0318 5.3044 14.1826C3.66347 14.4726 2.99194 16.0092 3.29129 17.5642C2.70793 17.6071 2.13335 17.8194 1.63964 18.1525C0.884257 18.6621 0.251148 19.5326 0.294785 20.5028C0.322933 21.13 0.654753 21.6161 1.11272 21.9552C0.955298 22.0097 0.793409 22.0575 0.637626 22.114C0.438802 22.1861 0.341401 22.3355 0.316231 22.4942C0.105791 22.5662 -0.0628002 22.7728 0.0228356 23.0336C0.372974 24.1022 1.03527 25.8512 2.01361 26.4442C2.54261 26.7645 3.55148 26.451 4.11265 26.4046C5.62103 26.2803 7.12971 26.163 8.63973 26.0626C14.3611 25.6827 20.05 25.7517 25.5609 27.5581C26.1598 27.7544 26.5187 27.1765 26.4267 26.6832C27.5279 25.8193 28.3701 23.9947 28.907 22.9628C29.1333 22.5269 28.9302 22.0123 28.4751 21.8643ZM6.34633 9.24136C5.27104 7.75014 4.0775 6.17958 3.46718 4.40857C3.1516 3.4928 3.72751 3.11394 4.50449 3.77659C5.33315 4.48314 5.81479 5.70659 6.25042 6.68892C6.93372 8.22991 7.36249 9.91509 8.00439 11.483C7.42043 10.7571 6.87861 9.97934 6.34633 9.24136ZM22.6696 18.0577C22.859 18.175 23.1223 18.1525 23.2596 17.9699C23.5667 17.9474 23.8786 17.9506 24.1925 17.9996C26.0053 18.2828 26.2721 19.6226 26.0192 21.168C24.1364 20.6933 22.1776 20.3354 20.1757 20.1097C20.1863 20.0307 20.1892 19.9524 20.1925 19.8743C20.2314 19.8535 20.2674 19.8259 20.2935 19.782C20.841 18.8613 21.7025 18.2799 22.6696 18.0577ZM20.0784 18.9844C19.8145 18.0964 19.1278 17.3339 18.3105 16.9133C18.3346 16.8503 18.3486 16.7793 18.3404 16.695C18.3184 16.4625 18.2741 16.2428 18.2147 16.0333C18.7577 15.4763 19.4925 15.1617 20.319 15.1625C20.531 15.1626 20.7111 15.1956 20.8781 15.2421C20.9848 15.4936 21.2333 15.5959 21.4564 15.5302C21.9122 15.908 22.126 16.5311 22.3051 17.1811C21.3895 17.4984 20.5803 18.1223 20.0784 18.9844ZM17.1531 16.2494C17.104 16.3562 17.0496 16.4593 17.0091 16.5719C15.6197 16.515 14.3892 17.2681 13.7925 18.4928C13.371 17.6514 12.617 16.9803 11.7569 16.5539C11.7777 16.5247 11.7937 16.4899 11.8024 16.4486C12.1005 15.0429 13.2472 14.4009 14.5627 14.3658C15.8772 14.3305 16.685 15.1489 17.1531 16.2494ZM16.8754 17.4869C17.4939 17.4877 18.0769 17.7704 18.5239 18.1976C19.0513 18.7016 19.1125 19.3602 19.2614 20.015C17.5713 19.8578 15.8605 19.7837 14.1508 19.8075C14.144 19.6794 14.1289 19.5537 14.1076 19.43C14.5502 18.1968 15.5671 17.4853 16.8754 17.4869ZM19.0379 12.1491C19.5999 12.2589 20.0954 12.6074 20.4219 13.0878C20.6564 13.4334 20.7029 13.7985 20.7257 14.1692C20.7166 14.168 20.708 14.1644 20.6989 14.1632C19.5816 14.0222 18.5763 14.4447 17.8567 15.2018C17.4875 14.5818 16.941 14.1147 16.3197 13.8045C16.3907 13.6025 16.426 13.3801 16.4344 13.1497C17.0606 12.366 17.9766 11.9415 19.0379 12.1491ZM10.222 12.1138C10.2814 10.4007 11.9612 10.1149 13.287 10.4842C14.0031 10.6837 14.6387 11.1462 15.0234 11.8024C15.3469 12.3543 15.2243 12.8872 15.1759 13.4278C14.2694 13.2688 13.3293 13.407 12.5921 13.8785C12.6372 13.7338 12.6199 13.5643 12.4849 13.4043C11.8942 12.7043 11.071 12.221 10.2135 12.1543C10.2156 12.14 10.2214 12.1294 10.222 12.1138ZM9.33912 13.414C10.1603 12.8484 11.1821 13.5768 11.8167 14.0957C11.9283 14.1869 12.0467 14.2199 12.1579 14.216C12.0503 14.3185 11.9505 14.4311 11.8593 14.5536C11.7506 14.3461 11.5229 14.3054 11.3449 14.3846C11.2746 14.3056 11.2061 14.2247 11.1305 14.1512C10.8028 13.833 10.3456 14.3136 10.6408 14.6578C10.867 14.9214 11.0374 15.2948 11.3308 15.4862C11.3515 15.4996 11.3737 15.5022 11.3951 15.5121C11.3559 15.6432 11.3181 15.7757 11.2924 15.9188C11.2648 15.7895 11.1762 15.6717 11 15.6114C10.5429 15.4546 10.2693 14.8628 10.2127 14.4046C10.1681 14.0441 9.69044 14.0305 9.66066 14.4046C9.60511 15.1013 9.86112 15.6536 10.3072 16.1054C10.1703 16.0849 10.0331 16.0579 9.89716 16.0522C9.5232 16.0362 9.16278 16.0798 8.82247 16.1681C8.77332 16.069 8.71092 15.977 8.65284 15.8826C8.52505 15.0249 8.57227 13.9421 9.33912 13.414ZM5.60003 15.1175C6.69304 15.0084 7.36681 15.7291 7.89343 16.5617C6.78389 17.2425 6.14274 18.5345 6.5523 20.0302C6.62096 20.2811 7.02367 20.2404 7.00267 19.9674C6.90274 18.672 7.42475 17.7505 8.32251 17.2821C8.56735 17.645 9.09621 17.4202 9.09621 17.011C9.34775 16.9583 9.61434 16.9285 9.89716 16.9289C10.7413 16.9299 11.5671 17.2863 12.2011 17.8497C12.8249 18.4037 13.0133 19.0955 13.1778 19.829C10.9066 19.907 8.64837 20.1447 6.46324 20.5536C6.32429 19.3747 5.56384 18.1743 4.49407 17.7416C4.30031 17.6631 4.10104 17.6165 3.90057 17.5869C3.86602 16.3993 4.31862 15.2454 5.60003 15.1175ZM2.18056 18.9191C2.76988 18.5156 3.48907 18.3697 4.16493 18.6023C5.05077 18.9072 5.35415 19.8662 5.6669 20.7017C4.44894 20.9546 3.25808 21.2634 2.10163 21.6242C1.65677 21.3367 1.25286 20.9742 1.22442 20.4226C1.1918 19.792 1.71217 19.2399 2.18056 18.9191ZM25.1269 25.8625C21.2735 24.6547 17.2657 24.3527 13.2451 24.3885C11.0979 24.4074 8.95338 24.5746 6.81427 24.7539C5.61716 24.8544 4.42109 24.9715 3.22502 25.084C2.06633 25.1929 1.47671 24.0022 1.00191 23.035C9.51694 21.3603 18.7139 20.4941 27.1689 23.0265C26.5242 24.009 25.7594 24.8837 25.1269 25.8625Z" fill="#FFAE00"/>
</svg>
