<svg width="70" height="70" viewBox="0 0 70 70" fill="none" xmlns="http://www.w3.org/2000/svg">
    <rect width="70" height="70" rx="20" fill="#FFAE00"/>
    <circle cx="35" cy="35" r="30" fill="white"/>
    <path d="M42.9062 43.75H53.0312C52.8646 46.875 52.0104 49.6354 50.4688 52.0312C48.9479 54.4062 46.8333 56.2708 44.125 57.625C41.4167 58.9583 38.1979 59.625 34.4688 59.625C31.4896 59.625 28.8229 59.1146 26.4688 58.0938C24.1146 57.0729 22.1146 55.6146 20.4688 53.7188C18.8438 51.8021 17.5938 49.5 16.7188 46.8125C15.8646 44.1042 15.4375 41.0521 15.4375 37.6562V34.875C15.4375 31.4792 15.8854 28.4271 16.7812 25.7188C17.6771 23.0104 18.9583 20.6979 20.625 18.7812C22.2917 16.8646 24.2917 15.3958 26.625 14.375C28.9583 13.3542 31.5625 12.8438 34.4375 12.8438C38.3125 12.8438 41.5833 13.5417 44.25 14.9375C46.9167 16.3333 48.9792 18.25 50.4375 20.6875C51.9167 23.125 52.8021 25.9062 53.0938 29.0312H42.9375C42.8542 27.2604 42.5208 25.7708 41.9375 24.5625C41.3542 23.3333 40.4583 22.4062 39.25 21.7812C38.0417 21.1562 36.4375 20.8438 34.4375 20.8438C32.9792 20.8438 31.6979 21.1146 30.5938 21.6562C29.5104 22.1979 28.6042 23.0417 27.875 24.1875C27.1667 25.3333 26.6354 26.7917 26.2812 28.5625C25.9271 30.3125 25.75 32.3958 25.75 34.8125V37.6562C25.75 40.0521 25.9062 42.125 26.2188 43.875C26.5312 45.625 27.0312 47.0729 27.7188 48.2188C28.4271 49.3646 29.3333 50.2188 30.4375 50.7812C31.5417 51.3438 32.8854 51.625 34.4688 51.625C36.2812 51.625 37.7917 51.3438 39 50.7812C40.2083 50.1979 41.1354 49.3229 41.7812 48.1562C42.4271 46.9896 42.8021 45.5208 42.9062 43.75Z" fill="#FFAE00"/>
</svg>
