<svg width="30" height="30" viewBox="0 0 30 30" fill="none" xmlns="http://www.w3.org/2000/svg">
    <path fill-rule="evenodd" clip-rule="evenodd" d="M11.5081 3.97739C11.1929 4.07724 10.8817 4.19071 10.5752 4.31764C9.1724 4.89871 7.89775 5.7504 6.82407 6.82407C5.7504 7.89775 4.89871 9.1724 4.31764 10.5752C3.8565 11.6885 3.57296 12.8652 3.47556 14.0625H9.07617C9.11617 12.6926 9.24372 11.3426 9.45571 10.0632C9.71562 8.49447 10.0996 7.04892 10.594 5.81299C10.8639 5.13821 11.1689 4.52051 11.5081 3.97739ZM15 1.5625C13.2354 1.5625 11.488 1.91007 9.85769 2.58536C8.22737 3.26066 6.74604 4.25046 5.49825 5.49825C4.25046 6.74604 3.26066 8.22737 2.58537 9.85769C1.91007 11.488 1.5625 13.2354 1.5625 15C1.5625 16.7646 1.91007 18.512 2.58536 20.1422C3.26066 21.7726 4.25046 23.254 5.49825 24.5017C6.74604 25.7495 8.22737 26.7394 9.85769 27.4146C11.488 28.0899 13.2354 28.4375 15 28.4375C16.7646 28.4375 18.512 28.0899 20.1422 27.4146C21.7726 26.7394 23.254 25.7495 24.5017 24.5017C25.7495 23.254 26.7394 21.7726 27.4146 20.1422C28.0899 18.512 28.4375 16.7646 28.4375 15C28.4375 13.2354 28.0899 11.488 27.4146 9.85769C26.7394 8.22737 25.7495 6.74604 24.5017 5.49825C23.254 4.25046 21.7726 3.26066 20.1422 2.58537C18.512 1.91007 16.7646 1.5625 15 1.5625ZM15 3.4375C14.6734 3.4375 14.2515 3.59474 13.761 4.10275C13.2667 4.61451 12.772 5.41657 12.3349 6.50934C11.9007 7.59486 11.5481 8.9053 11.3055 10.3697C11.1108 11.5446 10.9914 12.7914 10.952 14.0625H19.048C19.0085 12.7914 18.8891 11.5446 18.6945 10.3697C18.4519 8.9053 18.0992 7.59487 17.6651 6.50935C17.228 5.41657 16.7332 4.61451 16.239 4.10275C15.7485 3.59474 15.3266 3.4375 15 3.4375ZM20.9239 14.0625C20.8839 12.6926 20.7562 11.3426 20.5442 10.0632C20.2844 8.49447 19.9004 7.04892 19.406 5.81299C19.1361 5.13821 18.8311 4.52051 18.4919 3.97739C18.8071 4.07724 19.1184 4.19071 19.4247 4.31764C20.8276 4.89871 22.1022 5.7504 23.1759 6.82407C24.2496 7.89776 25.1012 9.1724 25.6824 10.5752C26.1435 11.6885 26.427 12.8652 26.5244 14.0625H20.9239ZM19.048 15.9375H10.952C10.9914 17.2086 11.1108 18.4554 11.3055 19.6302C11.5481 21.0947 11.9007 22.4051 12.3349 23.4906C12.772 24.5834 13.2667 25.3855 13.761 25.8972C14.2515 26.4052 14.6734 26.5625 15 26.5625C15.3266 26.5625 15.7485 26.4052 16.239 25.8972C16.7332 25.3855 17.228 24.5834 17.6651 23.4906C18.0992 22.4051 18.4519 21.0947 18.6945 19.6302C18.8891 18.4554 19.0085 17.2086 19.048 15.9375ZM18.4919 26.0226C18.8311 25.4795 19.1361 24.8617 19.406 24.187C19.9004 22.9511 20.2844 21.5055 20.5442 19.9367C20.7562 18.6574 20.8839 17.3074 20.9239 15.9375H26.5244C26.427 17.1347 26.1435 18.3115 25.6824 19.4247C25.1012 20.8276 24.2496 22.1022 23.1759 23.1759C22.1022 24.2496 20.8276 25.1012 19.4247 25.6824C19.1184 25.8092 18.8071 25.9227 18.4919 26.0226ZM11.5081 26.0226C11.1689 25.4795 10.8639 24.8617 10.594 24.187C10.0996 22.9511 9.71562 21.5055 9.45571 19.9367C9.24372 18.6574 9.11617 17.3074 9.07617 15.9375H3.47556C3.57296 17.1347 3.8565 18.3115 4.31764 19.4247C4.89871 20.8276 5.7504 22.1022 6.82407 23.1759C7.89775 24.2496 9.1724 25.1012 10.5752 25.6824C10.8817 25.8092 11.1929 25.9227 11.5081 26.0226Z" fill="#FFAE00"/>
</svg>
