<svg width="30" height="30" viewBox="0 0 30 30" fill="none" xmlns="http://www.w3.org/2000/svg">
    <path d="M26.25 14.9997H23.2951C22.4726 14.9997 22.0614 14.9997 21.6972 15.162C21.3331 15.3241 21.0579 15.63 20.5074 16.2415L19.2209 17.6711C18.7693 18.1727 18.5435 18.4236 18.2571 18.4175C17.9707 18.4114 17.7561 18.1512 17.327 17.631L12.9167 12.2852C12.5166 11.8002 12.3165 11.5577 12.045 11.5414C11.7735 11.5251 11.5458 11.7419 11.0905 12.1755L9.21121 13.9654C8.67482 14.4761 8.40662 14.7316 8.07136 14.8657C7.73609 14.9997 7.36573 14.9997 6.625 14.9997H3.75" stroke="#FFAE00" stroke-width="2" stroke-linecap="round"/>
    <path d="M15 6.87575L14.3245 7.52588C14.5013 7.70951 14.7451 7.81325 15 7.81325C15.2549 7.81325 15.4987 7.70951 15.6755 7.52588L15 6.87575ZM3.32083 16.7455C3.59448 17.185 4.17264 17.3195 4.61217 17.0459C5.05171 16.7723 5.18619 16.194 4.91254 15.7545L3.32083 16.7455ZM8.16211 19.7148C7.79556 19.3491 7.20197 19.3498 6.83629 19.7164C6.47061 20.0829 6.47133 20.6765 6.83789 21.0421L8.16211 19.7148ZM3.4375 11.4213C3.4375 7.91774 5.00902 5.74384 6.97401 4.99639C8.94432 4.24692 11.6891 4.78776 14.3245 7.52588L15.6755 6.22563C12.6861 3.11979 9.18087 2.15087 6.30739 3.24391C3.42857 4.33896 1.5625 7.35982 1.5625 11.4213H3.4375ZM19.3783 24.3749C21.2436 22.9043 23.4796 20.9326 25.2576 18.7298C27.0158 16.5515 28.4375 14.0111 28.4375 11.4213H26.5625C26.5625 13.36 25.4721 15.4786 23.7986 17.5521C22.145 19.6009 20.0299 21.4735 18.2175 22.9024L19.3783 24.3749ZM28.4375 11.4213C28.4375 7.3598 26.5714 4.33894 23.6926 3.24389C20.8191 2.15088 17.3139 3.11979 14.3245 6.22563L15.6755 7.52588C18.3109 4.78776 21.0556 4.24692 23.026 4.99639C24.991 5.74383 26.5625 7.91773 26.5625 11.4213H28.4375ZM10.6218 24.3748C12.2147 25.6305 13.3126 26.5449 15 26.5449V24.6699C14.0866 24.6699 13.5196 24.2718 11.7826 22.9024L10.6218 24.3748ZM18.2175 22.9024C16.4804 24.2718 15.9134 24.6699 15 24.6699V26.5449C16.6874 26.5449 17.7854 25.6305 19.3783 24.3749L18.2175 22.9024ZM4.91254 15.7545C3.98004 14.2568 3.4375 12.789 3.4375 11.4213H1.5625C1.5625 13.2713 2.28818 15.0869 3.32083 16.7455L4.91254 15.7545ZM11.7826 22.9024C10.6364 21.9988 9.36366 20.9134 8.16211 19.7148L6.83789 21.0421C8.10434 22.3056 9.43524 23.4394 10.6218 24.3748L11.7826 22.9024Z" fill="#FFAE00"/>
</svg>
