<svg width="360" height="63" viewBox="0 0 360 63" fill="none" xmlns="http://www.w3.org/2000/svg">
    <path d="M39.2812 25.0938L39.0312 27.0938C38.6146 30.0521 37.8229 32.8958 36.6562 35.625C35.5104 38.3333 33.9896 40.75 32.0938 42.875C30.2188 45 27.9896 46.6771 25.4062 47.9062C22.8438 49.1146 19.9479 49.6875 16.7188 49.625C13.6146 49.5625 10.9792 48.8958 8.8125 47.625C6.64583 46.3542 4.91667 44.6562 3.625 42.5312C2.35417 40.4062 1.5 38.0312 1.0625 35.4062C0.625 32.7604 0.572917 30.0521 0.90625 27.2812L1.15625 25.25C1.57292 22.3333 2.36458 19.5208 3.53125 16.8125C4.71875 14.1042 6.25 11.6875 8.125 9.5625C10.0208 7.4375 12.2604 5.78125 14.8438 4.59375C17.4271 3.38542 20.3229 2.8125 23.5312 2.875C26.6146 2.91667 29.2292 3.57292 31.375 4.84375C33.5417 6.11458 35.2604 7.8125 36.5312 9.9375C37.8021 12.0625 38.6562 14.4375 39.0938 17.0625C39.5521 19.6875 39.6146 22.3646 39.2812 25.0938ZM28.9688 27.2812L29.25 25.1562C29.4167 23.8438 29.5104 22.3854 29.5312 20.7812C29.5521 19.1771 29.3854 17.6354 29.0312 16.1562C28.6771 14.6771 28.0208 13.4479 27.0625 12.4688C26.125 11.4896 24.75 10.9583 22.9375 10.875C20.9792 10.7917 19.3021 11.1875 17.9062 12.0625C16.5312 12.9167 15.3958 14.0729 14.5 15.5312C13.6042 16.9688 12.8958 18.5417 12.375 20.25C11.8542 21.9583 11.4792 23.6042 11.25 25.1875L10.9688 27.3125C10.8229 28.6042 10.7292 30.0625 10.6875 31.6875C10.6667 33.2917 10.8229 34.8438 11.1562 36.3438C11.5104 37.8438 12.1667 39.0938 13.125 40.0938C14.0833 41.0729 15.4688 41.5938 17.2812 41.6562C19.2188 41.7396 20.875 41.3438 22.25 40.4688C23.6458 39.5729 24.8021 38.4062 25.7188 36.9688C26.6354 35.5104 27.3542 33.9271 27.875 32.2188C28.3958 30.5104 28.7604 28.8646 28.9688 27.2812ZM54.625 22.9375L50.0625 49H40.5312L46.4062 15.1875H55.3125L54.625 22.9375ZM52.0312 30.9062L49.875 31C50.0833 28.9792 50.5208 26.9792 51.1875 25C51.8542 23.0208 52.7708 21.2396 53.9375 19.6562C55.125 18.0521 56.5833 16.7917 58.3125 15.875C60.0417 14.9375 62.0729 14.4896 64.4062 14.5312C66.2812 14.5938 67.8229 15 69.0312 15.75C70.2604 16.4792 71.1979 17.4583 71.8438 18.6875C72.5104 19.8958 72.9375 21.2708 73.125 22.8125C73.3125 24.3333 73.3125 25.9167 73.125 27.5625L69.5625 49H59.9688L63.5938 27.4688C63.6979 26.4479 63.6667 25.5312 63.5 24.7188C63.3333 23.9062 62.9479 23.2812 62.3438 22.8438C61.7604 22.3854 60.8854 22.1354 59.7188 22.0938C58.4688 22.0729 57.3958 22.3229 56.5 22.8438C55.6042 23.3438 54.8542 24.0312 54.25 24.9062C53.6458 25.7604 53.1667 26.7188 52.8125 27.7812C52.4792 28.8229 52.2188 29.8646 52.0312 30.9062ZM94.0625 1L85.75 49H76.1875L84.5 1H94.0625ZM103.062 44.625L116.625 15.1875H127.156L107.344 54.0938C106.76 55.3646 106.094 56.5208 105.344 57.5625C104.594 58.625 103.74 59.5417 102.781 60.3125C101.844 61.1042 100.771 61.7083 99.5625 62.125C98.375 62.5417 97.0417 62.75 95.5625 62.75C94.8125 62.75 94.0729 62.6771 93.3438 62.5312C92.6146 62.4062 91.8958 62.2604 91.1875 62.0938L91.9062 54.9688C92.1146 55.0104 92.3333 55.0312 92.5625 55.0312C92.7708 55.0521 92.9688 55.0625 93.1562 55.0625C94.1146 55.0625 94.9688 54.9479 95.7188 54.7188C96.4688 54.5104 97.1354 54.1562 97.7188 53.6562C98.3021 53.1562 98.8125 52.4896 99.25 51.6562L103.062 44.625ZM105.219 15.1875L107.906 39.75L107.312 49.625L101 49.9688L95.3125 15.1875H105.219Z" fill="white"/>
    <path d="M154.219 33.75H164.344C164.177 36.875 163.323 39.6354 161.781 42.0312C160.26 44.4062 158.146 46.2708 155.438 47.625C152.729 48.9583 149.51 49.625 145.781 49.625C142.802 49.625 140.135 49.1146 137.781 48.0938C135.427 47.0729 133.427 45.6146 131.781 43.7188C130.156 41.8021 128.906 39.5 128.031 36.8125C127.177 34.1042 126.75 31.0521 126.75 27.6562V24.875C126.75 21.4792 127.198 18.4271 128.094 15.7188C128.99 13.0104 130.271 10.6979 131.938 8.78125C133.604 6.86458 135.604 5.39583 137.938 4.375C140.271 3.35417 142.875 2.84375 145.75 2.84375C149.625 2.84375 152.896 3.54167 155.562 4.9375C158.229 6.33333 160.292 8.25 161.75 10.6875C163.229 13.125 164.115 15.9062 164.406 19.0312H154.25C154.167 17.2604 153.833 15.7708 153.25 14.5625C152.667 13.3333 151.771 12.4062 150.562 11.7812C149.354 11.1562 147.75 10.8438 145.75 10.8438C144.292 10.8438 143.01 11.1146 141.906 11.6562C140.823 12.1979 139.917 13.0417 139.188 14.1875C138.479 15.3333 137.948 16.7917 137.594 18.5625C137.24 20.3125 137.062 22.3958 137.062 24.8125V27.6562C137.062 30.0521 137.219 32.125 137.531 33.875C137.844 35.625 138.344 37.0729 139.031 38.2188C139.74 39.3646 140.646 40.2188 141.75 40.7812C142.854 41.3438 144.198 41.625 145.781 41.625C147.594 41.625 149.104 41.3438 150.312 40.7812C151.521 40.1979 152.448 39.3229 153.094 38.1562C153.74 36.9896 154.115 35.5208 154.219 33.75ZM168.094 32.4375V31.7812C168.094 29.3021 168.448 27.0208 169.156 24.9375C169.865 22.8333 170.906 21.0104 172.281 19.4688C173.656 17.9271 175.344 16.7292 177.344 15.875C179.344 15 181.635 14.5625 184.219 14.5625C186.844 14.5625 189.156 15 191.156 15.875C193.177 16.7292 194.875 17.9271 196.25 19.4688C197.625 21.0104 198.667 22.8333 199.375 24.9375C200.083 27.0208 200.438 29.3021 200.438 31.7812V32.4375C200.438 34.8958 200.083 37.1771 199.375 39.2812C198.667 41.3646 197.625 43.1875 196.25 44.75C194.875 46.2917 193.188 47.4896 191.188 48.3438C189.188 49.1979 186.885 49.625 184.281 49.625C181.698 49.625 179.396 49.1979 177.375 48.3438C175.354 47.4896 173.656 46.2917 172.281 44.75C170.906 43.1875 169.865 41.3646 169.156 39.2812C168.448 37.1771 168.094 34.8958 168.094 32.4375ZM177.875 31.7812V32.4375C177.875 33.7708 177.979 35.0208 178.188 36.1875C178.417 37.3542 178.781 38.375 179.281 39.25C179.781 40.125 180.438 40.8125 181.25 41.3125C182.083 41.7917 183.094 42.0312 184.281 42.0312C185.469 42.0312 186.469 41.7917 187.281 41.3125C188.094 40.8125 188.75 40.125 189.25 39.25C189.75 38.375 190.104 37.3542 190.312 36.1875C190.542 35.0208 190.656 33.7708 190.656 32.4375V31.7812C190.656 30.4688 190.542 29.2396 190.312 28.0938C190.104 26.9271 189.75 25.8958 189.25 25C188.75 24.1042 188.083 23.4062 187.25 22.9062C186.438 22.4062 185.427 22.1562 184.219 22.1562C183.052 22.1562 182.062 22.4062 181.25 22.9062C180.438 23.4062 179.781 24.1042 179.281 25C178.781 25.8958 178.417 26.9271 178.188 28.0938C177.979 29.2396 177.875 30.4688 177.875 31.7812ZM204.156 32.4375V31.7812C204.156 29.3021 204.51 27.0208 205.219 24.9375C205.927 22.8333 206.969 21.0104 208.344 19.4688C209.719 17.9271 211.406 16.7292 213.406 15.875C215.406 15 217.698 14.5625 220.281 14.5625C222.906 14.5625 225.219 15 227.219 15.875C229.24 16.7292 230.938 17.9271 232.312 19.4688C233.688 21.0104 234.729 22.8333 235.438 24.9375C236.146 27.0208 236.5 29.3021 236.5 31.7812V32.4375C236.5 34.8958 236.146 37.1771 235.438 39.2812C234.729 41.3646 233.688 43.1875 232.312 44.75C230.938 46.2917 229.25 47.4896 227.25 48.3438C225.25 49.1979 222.948 49.625 220.344 49.625C217.76 49.625 215.458 49.1979 213.438 48.3438C211.417 47.4896 209.719 46.2917 208.344 44.75C206.969 43.1875 205.927 41.3646 205.219 39.2812C204.51 37.1771 204.156 34.8958 204.156 32.4375ZM213.938 31.7812V32.4375C213.938 33.7708 214.042 35.0208 214.25 36.1875C214.479 37.3542 214.844 38.375 215.344 39.25C215.844 40.125 216.5 40.8125 217.312 41.3125C218.146 41.7917 219.156 42.0312 220.344 42.0312C221.531 42.0312 222.531 41.7917 223.344 41.3125C224.156 40.8125 224.812 40.125 225.312 39.25C225.812 38.375 226.167 37.3542 226.375 36.1875C226.604 35.0208 226.719 33.7708 226.719 32.4375V31.7812C226.719 30.4688 226.604 29.2396 226.375 28.0938C226.167 26.9271 225.812 25.8958 225.312 25C224.812 24.1042 224.146 23.4062 223.312 22.9062C222.5 22.4062 221.49 22.1562 220.281 22.1562C219.115 22.1562 218.125 22.4062 217.312 22.9062C216.5 23.4062 215.844 24.1042 215.344 25C214.844 25.8958 214.479 26.9271 214.25 28.0938C214.042 29.2396 213.938 30.4688 213.938 31.7812ZM251.438 0.96875V49H241.656V0.96875H251.438ZM272.906 15.1875L258.188 32.1875L250.406 40L246.5 33.4062L252.812 25.25L261.156 15.1875H272.906ZM262.594 49L253.062 33.4688L260.062 28L273.781 49H262.594ZM286.531 15.1875V49H276.75V15.1875H286.531ZM276.156 6.4375C276.156 5.02083 276.656 3.86458 277.656 2.96875C278.656 2.05208 279.969 1.59375 281.594 1.59375C283.219 1.59375 284.531 2.05208 285.531 2.96875C286.552 3.86458 287.062 5.02083 287.062 6.4375C287.062 7.83333 286.552 8.98958 285.531 9.90625C284.531 10.8021 283.219 11.25 281.594 11.25C279.969 11.25 278.656 10.8021 277.656 9.90625C276.656 8.98958 276.156 7.83333 276.156 6.4375ZM303.125 22.4062V49H293.344V15.1875H302.531L303.125 22.4062ZM301.844 30.9062L299.406 30.9688C299.406 28.4271 299.719 26.1458 300.344 24.125C300.969 22.1042 301.854 20.3854 303 18.9688C304.167 17.5312 305.552 16.4375 307.156 15.6875C308.781 14.9375 310.573 14.5625 312.531 14.5625C314.115 14.5625 315.562 14.7917 316.875 15.25C318.188 15.7083 319.312 16.4479 320.25 17.4688C321.208 18.4688 321.938 19.8021 322.438 21.4688C322.938 23.1146 323.188 25.1458 323.188 27.5625V49H313.375V27.5312C313.375 26.1146 313.177 25.0208 312.781 24.25C312.385 23.4792 311.802 22.9375 311.031 22.625C310.281 22.3125 309.365 22.1562 308.281 22.1562C307.135 22.1562 306.156 22.3854 305.344 22.8438C304.531 23.2812 303.865 23.8958 303.344 24.6875C302.823 25.4792 302.438 26.4062 302.188 27.4688C301.958 28.5312 301.844 29.6771 301.844 30.9062ZM350.875 15.1875H359.75V47.7812C359.75 50.8854 359.042 53.5208 357.625 55.6875C356.229 57.8542 354.281 59.5 351.781 60.625C349.281 61.75 346.354 62.3125 343 62.3125C341.542 62.3125 340.021 62.1146 338.438 61.7188C336.854 61.3438 335.365 60.7708 333.969 60C332.573 59.25 331.406 58.2917 330.469 57.125L334.625 51.375C335.583 52.4583 336.729 53.3333 338.062 54C339.396 54.6875 340.917 55.0312 342.625 55.0312C344.188 55.0312 345.51 54.75 346.594 54.1875C347.677 53.625 348.5 52.8021 349.062 51.7188C349.646 50.6354 349.938 49.3229 349.938 47.7812V23.0938L350.875 15.1875ZM328.281 32.5V31.8438C328.281 29.2812 328.594 26.9479 329.219 24.8438C329.844 22.7188 330.75 20.8958 331.938 19.375C333.146 17.8333 334.594 16.6458 336.281 15.8125C337.99 14.9792 339.906 14.5625 342.031 14.5625C344.323 14.5625 346.219 15 347.719 15.875C349.219 16.7292 350.438 17.9375 351.375 19.5C352.312 21.0417 353.052 22.8646 353.594 24.9688C354.135 27.0521 354.573 29.3125 354.906 31.75V32.875C354.573 35.2083 354.094 37.3854 353.469 39.4062C352.844 41.4271 352.031 43.2083 351.031 44.75C350.031 46.2708 348.781 47.4688 347.281 48.3438C345.802 49.1979 344.031 49.625 341.969 49.625C339.865 49.625 337.969 49.1979 336.281 48.3438C334.594 47.4896 333.146 46.2917 331.938 44.75C330.75 43.2083 329.844 41.3958 329.219 39.3125C328.594 37.2292 328.281 34.9583 328.281 32.5ZM338.031 31.8438V32.5C338.031 33.8333 338.156 35.0729 338.406 36.2188C338.677 37.3646 339.073 38.375 339.594 39.25C340.135 40.125 340.802 40.8125 341.594 41.3125C342.406 41.7917 343.354 42.0312 344.438 42.0312C346.021 42.0312 347.302 41.6979 348.281 41.0312C349.281 40.3438 350.01 39.3958 350.469 38.1875C350.948 36.9792 351.198 35.5729 351.219 33.9688V30.6875C351.219 29.3542 351.083 28.1562 350.812 27.0938C350.542 26.0312 350.135 25.1354 349.594 24.4062C349.073 23.6771 348.385 23.125 347.531 22.75C346.698 22.3542 345.688 22.1562 344.5 22.1562C343.438 22.1562 342.5 22.4062 341.688 22.9062C340.875 23.3854 340.198 24.0625 339.656 24.9375C339.115 25.8125 338.708 26.8438 338.438 28.0312C338.167 29.1979 338.031 30.4688 338.031 31.8438Z" fill="#FFAE00"/>
</svg>
