<svg width="30" height="30" viewBox="0 0 30 30" fill="none" xmlns="http://www.w3.org/2000/svg">
    <g clip-path="url(#clip0_19_63)">
        <path d="M28.5625 23.0625C25.6875 18.25 18.5625 13.4375 14.6875 12.9375C14.4765 12.9056 14.2608 12.9282 14.061 13.0032C13.8613 13.0782 13.684 13.2031 13.5462 13.366C13.4083 13.5289 13.3145 13.7244 13.2736 13.9338C13.2327 14.1433 13.2461 14.3597 13.3125 14.5625C13.3944 14.7847 13.5378 14.979 13.7259 15.1228C13.914 15.2667 14.1391 15.3541 14.375 15.375C16.125 15.6875 19.125 17.25 21.8125 19.375C19.5625 21.5 16.1875 22.4375 13.4375 21.625C8.62499 20.25 6.18748 14.0625 4.43748 8.93752L9.18748 8.25001C13.3125 7.50001 16.875 6.87502 19.25 8.50002C21.625 10.125 21.75 11.625 22.125 13.6875L23.75 14.8125C23.8471 14.8864 23.9636 14.9302 24.0853 14.9386C24.207 14.947 24.3285 14.9196 24.4348 14.8598C24.5411 14.8 24.6276 14.7104 24.6836 14.6021C24.7396 14.4937 24.7627 14.3713 24.75 14.25C24.375 11.3125 23.4375 8.37501 20.6875 6.50001C17.9375 4.62501 13.25 5.00001 8.74998 5.75001C6.74747 6.1434 4.72291 6.41473 2.68748 6.56251H1.87498C1.77441 6.55168 1.67278 6.56818 1.58079 6.61025C1.4888 6.65233 1.40985 6.71843 1.35228 6.8016C1.2947 6.88477 1.26061 6.98193 1.25361 7.08284C1.24661 7.18375 1.26694 7.28469 1.31248 7.37502L1.56248 8.12502C3.49998 14 6.18748 22.0625 12.6875 24C13.6046 24.2473 14.5501 24.3734 15.5 24.375C18.569 24.349 21.5152 23.1661 23.75 21.0625C24.7714 22.0586 25.6733 23.1703 26.4375 24.375C26.5404 24.5665 26.6939 24.726 26.8813 24.8362C27.0686 24.9464 27.2826 25.0031 27.5 25C27.7904 25.0046 28.0749 24.9171 28.3125 24.75C28.5484 24.5447 28.7032 24.2618 28.749 23.9524C28.7949 23.643 28.7287 23.3274 28.5625 23.0625Z" fill="#FFAE00"/>
    </g>
    <defs>
        <clipPath id="clip0_19_63">
            <rect width="30" height="30" fill="white"/>
        </clipPath>
    </defs>
</svg>
