<svg width="179" height="32" viewBox="0 0 179 32" fill="none" xmlns="http://www.w3.org/2000/svg">
    <path d="M19.4062 13L19.25 14.1562C19.0417 15.6042 18.6562 17 18.0938 18.3438C17.5312 19.6875 16.7917 20.8906 15.875 21.9531C14.9583 23.0052 13.8698 23.8385 12.6094 24.4531C11.349 25.0573 9.91667 25.3438 8.3125 25.3125C6.78125 25.2812 5.48958 24.9479 4.4375 24.3125C3.38542 23.6667 2.55208 22.8125 1.9375 21.75C1.33333 20.6875 0.927083 19.5052 0.71875 18.2031C0.520833 16.8906 0.505208 15.5625 0.671875 14.2188L0.828125 13.0469C1.03646 11.6094 1.42708 10.224 2 8.89062C2.57292 7.54688 3.31771 6.34896 4.23438 5.29688C5.15104 4.23438 6.23958 3.40104 7.5 2.79688C8.77083 2.19271 10.1979 1.90625 11.7812 1.9375C13.3125 1.95833 14.6042 2.29167 15.6562 2.9375C16.7083 3.57292 17.5365 4.42188 18.1406 5.48438C18.7448 6.54688 19.1458 7.72917 19.3438 9.03125C19.5521 10.3333 19.5729 11.6562 19.4062 13ZM15.0156 14.2188L15.1719 13C15.2656 12.25 15.3125 11.4479 15.3125 10.5938C15.3125 9.72917 15.2031 8.91146 14.9844 8.14062C14.7656 7.35938 14.3854 6.71875 13.8438 6.21875C13.3021 5.70833 12.5365 5.43229 11.5469 5.39062C10.5052 5.34896 9.60417 5.55729 8.84375 6.01562C8.08333 6.46354 7.44271 7.07292 6.92188 7.84375C6.41146 8.60417 6.00521 9.4375 5.70312 10.3438C5.41146 11.25 5.20312 12.1406 5.07812 13.0156L4.92188 14.2344C4.82812 14.9635 4.78125 15.7604 4.78125 16.625C4.78125 17.4896 4.89062 18.3177 5.10938 19.1094C5.32812 19.8906 5.70833 20.5417 6.25 21.0625C6.79167 21.5729 7.55729 21.8438 8.54688 21.875C9.59896 21.9167 10.5052 21.7083 11.2656 21.25C12.026 20.7917 12.6615 20.1823 13.1719 19.4219C13.6823 18.651 14.0885 17.8125 14.3906 16.9062C14.6927 15.9896 14.901 15.0938 15.0156 14.2188ZM26.7969 11.9375L24.5312 25H20.4844L23.4219 8.09375H27.2031L26.7969 11.9375ZM25.5 15.9375L24.3906 15.9531C24.5156 14.9427 24.7552 13.9479 25.1094 12.9688C25.4635 11.9792 25.9427 11.0885 26.5469 10.2969C27.1615 9.50521 27.9062 8.88021 28.7812 8.42188C29.6562 7.96354 30.6719 7.74479 31.8281 7.76562C32.7552 7.79688 33.5208 7.98958 34.125 8.34375C34.7396 8.69792 35.2135 9.17188 35.5469 9.76562C35.8802 10.349 36.0938 11.0208 36.1875 11.7812C36.2917 12.5417 36.2969 13.3333 36.2031 14.1562L34.4062 25H30.3438L32.1719 14.1094C32.2344 13.526 32.2135 13.0052 32.1094 12.5469C32.0156 12.0885 31.8021 11.7292 31.4688 11.4688C31.1354 11.1979 30.6458 11.0573 30 11.0469C29.3125 11.026 28.7083 11.1562 28.1875 11.4375C27.6667 11.7188 27.224 12.099 26.8594 12.5781C26.4948 13.0573 26.2031 13.5938 25.9844 14.1875C25.7656 14.7708 25.6042 15.3542 25.5 15.9375ZM46.3438 1L42.1875 25H38.1406L42.2969 1H46.3438ZM51.1406 22.9219L58.0469 8.09375H62.5L52.5938 27.5781C52.3125 28.1823 51.9896 28.7448 51.625 29.2656C51.2604 29.7865 50.8438 30.2448 50.375 30.6406C49.9167 31.0365 49.3958 31.3385 48.8125 31.5469C48.2396 31.7656 47.5938 31.875 46.875 31.875C46.5312 31.875 46.1927 31.8438 45.8594 31.7812C45.526 31.7188 45.1979 31.651 44.875 31.5781L45.1562 28.4688C45.2708 28.4792 45.3854 28.4896 45.5 28.5C45.6146 28.5104 45.724 28.5208 45.8281 28.5312C46.3906 28.5417 46.8854 28.4688 47.3125 28.3125C47.7396 28.1667 48.1094 27.9323 48.4219 27.6094C48.7448 27.2969 49.0312 26.8958 49.2812 26.4062L51.1406 22.9219ZM51.5 8.09375L53.1094 20.75L52.9844 24.9531L50.2344 25.4531L47.2969 8.09375H51.5Z" fill="black"/>
    <path d="M76.4375 17.4531H81.1094C81.0156 18.9844 80.5938 20.3438 79.8438 21.5312C79.1042 22.7188 78.0677 23.6458 76.7344 24.3125C75.4115 24.9792 73.8177 25.3125 71.9531 25.3125C70.4948 25.3125 69.1875 25.0625 68.0312 24.5625C66.875 24.0521 65.8854 23.3229 65.0625 22.375C64.25 21.4271 63.6302 20.2812 63.2031 18.9375C62.776 17.5938 62.5625 16.0885 62.5625 14.4219V12.8438C62.5625 11.1771 62.7812 9.67188 63.2188 8.32812C63.6667 6.97396 64.3021 5.82292 65.125 4.875C65.9583 3.92708 66.9531 3.19792 68.1094 2.6875C69.2656 2.17708 70.5573 1.92188 71.9844 1.92188C73.8802 1.92188 75.4792 2.26562 76.7812 2.95312C78.0938 3.64062 79.1094 4.58854 79.8281 5.79688C80.5573 7.00521 80.9948 8.38021 81.1406 9.92188H76.4531C76.401 9.00521 76.2188 8.22917 75.9062 7.59375C75.5938 6.94792 75.1198 6.46354 74.4844 6.14062C73.8594 5.80729 73.026 5.64062 71.9844 5.64062C71.2031 5.64062 70.5208 5.78646 69.9375 6.07812C69.3542 6.36979 68.8646 6.8125 68.4688 7.40625C68.0729 8 67.776 8.75 67.5781 9.65625C67.3906 10.5521 67.2969 11.6042 67.2969 12.8125V14.4219C67.2969 15.599 67.3854 16.6354 67.5625 17.5312C67.7396 18.4167 68.0104 19.1667 68.375 19.7812C68.75 20.3854 69.2292 20.8438 69.8125 21.1562C70.4062 21.4583 71.1198 21.6094 71.9531 21.6094C72.9323 21.6094 73.7396 21.4531 74.375 21.1406C75.0104 20.8281 75.4948 20.3646 75.8281 19.75C76.1719 19.1354 76.375 18.3698 76.4375 17.4531ZM83.1875 16.7188V16.3906C83.1875 15.151 83.3646 14.0104 83.7188 12.9688C84.0729 11.9167 84.5885 11.0052 85.2656 10.2344C85.9427 9.46354 86.776 8.86458 87.7656 8.4375C88.7552 8 89.8906 7.78125 91.1719 7.78125C92.4531 7.78125 93.5938 8 94.5938 8.4375C95.5938 8.86458 96.4323 9.46354 97.1094 10.2344C97.7969 11.0052 98.3177 11.9167 98.6719 12.9688C99.026 14.0104 99.2031 15.151 99.2031 16.3906V16.7188C99.2031 17.9479 99.026 19.0885 98.6719 20.1406C98.3177 21.1823 97.7969 22.0938 97.1094 22.875C96.4323 23.6458 95.599 24.2448 94.6094 24.6719C93.6198 25.099 92.4844 25.3125 91.2031 25.3125C89.9219 25.3125 88.7812 25.099 87.7812 24.6719C86.7917 24.2448 85.9531 23.6458 85.2656 22.875C84.5885 22.0938 84.0729 21.1823 83.7188 20.1406C83.3646 19.0885 83.1875 17.9479 83.1875 16.7188ZM87.6875 16.3906V16.7188C87.6875 17.4271 87.75 18.0885 87.875 18.7031C88 19.3177 88.1979 19.8594 88.4688 20.3281C88.75 20.7865 89.1146 21.1458 89.5625 21.4062C90.0104 21.6667 90.5573 21.7969 91.2031 21.7969C91.8281 21.7969 92.3646 21.6667 92.8125 21.4062C93.2604 21.1458 93.6198 20.7865 93.8906 20.3281C94.1615 19.8594 94.3594 19.3177 94.4844 18.7031C94.6198 18.0885 94.6875 17.4271 94.6875 16.7188V16.3906C94.6875 15.7031 94.6198 15.0573 94.4844 14.4531C94.3594 13.8385 94.1562 13.2969 93.875 12.8281C93.6042 12.349 93.2448 11.974 92.7969 11.7031C92.349 11.4323 91.8073 11.2969 91.1719 11.2969C90.5365 11.2969 89.9948 11.4323 89.5469 11.7031C89.1094 11.974 88.75 12.349 88.4688 12.8281C88.1979 13.2969 88 13.8385 87.875 14.4531C87.75 15.0573 87.6875 15.7031 87.6875 16.3906ZM101.25 16.7188V16.3906C101.25 15.151 101.427 14.0104 101.781 12.9688C102.135 11.9167 102.651 11.0052 103.328 10.2344C104.005 9.46354 104.839 8.86458 105.828 8.4375C106.818 8 107.953 7.78125 109.234 7.78125C110.516 7.78125 111.656 8 112.656 8.4375C113.656 8.86458 114.495 9.46354 115.172 10.2344C115.859 11.0052 116.38 11.9167 116.734 12.9688C117.089 14.0104 117.266 15.151 117.266 16.3906V16.7188C117.266 17.9479 117.089 19.0885 116.734 20.1406C116.38 21.1823 115.859 22.0938 115.172 22.875C114.495 23.6458 113.661 24.2448 112.672 24.6719C111.682 25.099 110.547 25.3125 109.266 25.3125C107.984 25.3125 106.844 25.099 105.844 24.6719C104.854 24.2448 104.016 23.6458 103.328 22.875C102.651 22.0938 102.135 21.1823 101.781 20.1406C101.427 19.0885 101.25 17.9479 101.25 16.7188ZM105.75 16.3906V16.7188C105.75 17.4271 105.812 18.0885 105.938 18.7031C106.062 19.3177 106.26 19.8594 106.531 20.3281C106.812 20.7865 107.177 21.1458 107.625 21.4062C108.073 21.6667 108.62 21.7969 109.266 21.7969C109.891 21.7969 110.427 21.6667 110.875 21.4062C111.323 21.1458 111.682 20.7865 111.953 20.3281C112.224 19.8594 112.422 19.3177 112.547 18.7031C112.682 18.0885 112.75 17.4271 112.75 16.7188V16.3906C112.75 15.7031 112.682 15.0573 112.547 14.4531C112.422 13.8385 112.219 13.2969 111.938 12.8281C111.667 12.349 111.307 11.974 110.859 11.7031C110.411 11.4323 109.87 11.2969 109.234 11.2969C108.599 11.2969 108.057 11.4323 107.609 11.7031C107.172 11.974 106.812 12.349 106.531 12.8281C106.26 13.2969 106.062 13.8385 105.938 14.4531C105.812 15.0573 105.75 15.7031 105.75 16.3906ZM124.531 0.984375V25H120.031V0.984375H124.531ZM135.188 8.09375L127.844 16.4688L123.906 20.4531L122.266 17.2031L125.391 13.2344L129.781 8.09375H135.188ZM130.516 25L125.516 17.1875L128.625 14.4688L135.703 25H130.516ZM141.875 8.09375V25H137.359V8.09375H141.875ZM137.078 3.6875C137.078 3.03125 137.307 2.48958 137.766 2.0625C138.224 1.63542 138.839 1.42188 139.609 1.42188C140.37 1.42188 140.979 1.63542 141.438 2.0625C141.906 2.48958 142.141 3.03125 142.141 3.6875C142.141 4.34375 141.906 4.88542 141.438 5.3125C140.979 5.73958 140.37 5.95312 139.609 5.95312C138.839 5.95312 138.224 5.73958 137.766 5.3125C137.307 4.88542 137.078 4.34375 137.078 3.6875ZM150 11.7031V25H145.5V8.09375H149.719L150 11.7031ZM149.344 15.9531H148.125C148.125 14.7031 148.286 13.5781 148.609 12.5781C148.932 11.5677 149.385 10.7083 149.969 10C150.552 9.28125 151.245 8.73438 152.047 8.35938C152.859 7.97396 153.766 7.78125 154.766 7.78125C155.557 7.78125 156.281 7.89583 156.938 8.125C157.594 8.35417 158.156 8.71875 158.625 9.21875C159.104 9.71875 159.469 10.3802 159.719 11.2031C159.979 12.026 160.109 13.0312 160.109 14.2188V25H155.578V14.2031C155.578 13.4531 155.474 12.8698 155.266 12.4531C155.057 12.0365 154.75 11.7448 154.344 11.5781C153.948 11.401 153.458 11.3125 152.875 11.3125C152.271 11.3125 151.745 11.4323 151.297 11.6719C150.859 11.9115 150.495 12.2448 150.203 12.6719C149.922 13.0885 149.708 13.5781 149.562 14.1406C149.417 14.7031 149.344 15.3073 149.344 15.9531ZM174.234 8.09375H178.312V24.4375C178.312 25.9792 177.969 27.2865 177.281 28.3594C176.604 29.4427 175.656 30.2604 174.438 30.8125C173.219 31.375 171.802 31.6562 170.188 31.6562C169.479 31.6562 168.729 31.5625 167.938 31.375C167.156 31.1875 166.406 30.8958 165.688 30.5C164.979 30.1042 164.385 29.6042 163.906 29L165.891 26.3438C166.411 26.9479 167.016 27.4167 167.703 27.75C168.391 28.0938 169.151 28.2656 169.984 28.2656C170.797 28.2656 171.484 28.1146 172.047 27.8125C172.609 27.5208 173.042 27.0885 173.344 26.5156C173.646 25.9531 173.797 25.2708 173.797 24.4688V12L174.234 8.09375ZM162.859 16.75V16.4219C162.859 15.1302 163.016 13.9583 163.328 12.9062C163.651 11.8438 164.104 10.9323 164.688 10.1719C165.281 9.41146 166 8.82292 166.844 8.40625C167.688 7.98958 168.641 7.78125 169.703 7.78125C170.828 7.78125 171.771 7.98958 172.531 8.40625C173.292 8.82292 173.917 9.41667 174.406 10.1875C174.896 10.9479 175.276 11.849 175.547 12.8906C175.828 13.9219 176.047 15.0521 176.203 16.2812V17C176.047 18.1771 175.812 19.2708 175.5 20.2812C175.188 21.2917 174.776 22.1771 174.266 22.9375C173.755 23.6875 173.12 24.2708 172.359 24.6875C171.609 25.1042 170.714 25.3125 169.672 25.3125C168.63 25.3125 167.688 25.099 166.844 24.6719C166.01 24.2448 165.297 23.6458 164.703 22.875C164.109 22.1042 163.651 21.1979 163.328 20.1562C163.016 19.1146 162.859 17.9792 162.859 16.75ZM167.359 16.4219V16.75C167.359 17.4479 167.427 18.099 167.562 18.7031C167.698 19.3073 167.906 19.8438 168.188 20.3125C168.479 20.7708 168.839 21.1302 169.266 21.3906C169.703 21.6406 170.219 21.7656 170.812 21.7656C171.635 21.7656 172.307 21.5938 172.828 21.25C173.349 20.8958 173.74 20.4115 174 19.7969C174.26 19.1823 174.411 18.474 174.453 17.6719V15.625C174.432 14.9688 174.344 14.3802 174.188 13.8594C174.031 13.3281 173.812 12.875 173.531 12.5C173.25 12.125 172.885 11.8333 172.438 11.625C171.99 11.4167 171.458 11.3125 170.844 11.3125C170.25 11.3125 169.734 11.4479 169.297 11.7188C168.87 11.9792 168.51 12.3385 168.219 12.7969C167.938 13.2552 167.724 13.7969 167.578 14.4219C167.432 15.0365 167.359 15.7031 167.359 16.4219Z" fill="#FFAE00"/>
</svg>
