<svg width="30" height="30" viewBox="0 0 30 30" fill="none" xmlns="http://www.w3.org/2000/svg">
    <path d="M28.125 18.2813H26.7188C26.8156 17.1217 26.6825 15.9545 26.3272 14.8465C25.9719 13.7385 25.4014 12.7115 24.6484 11.8245C23.7542 9.12109 18.9852 5.932 15.9602 5.75626L14.5015 4.29751C14.6551 4.03912 14.7456 3.74822 14.766 3.44833C14.7863 3.14844 14.7358 2.84798 14.6185 2.57124C14.5012 2.29449 14.3204 2.04922 14.0908 1.85526C13.8612 1.66129 13.5892 1.52407 13.2967 1.45469C13.0042 1.38531 12.6996 1.38572 12.4073 1.45587C12.115 1.52603 11.8434 1.66396 11.6143 1.85853C11.3852 2.05311 11.2051 2.29885 11.0885 2.57591C10.9719 2.85296 10.9222 3.15356 10.9433 3.45339C10.67 3.43598 10.3961 3.47712 10.1399 3.57406C9.88376 3.671 9.65124 3.82151 9.4579 4.01551C7.87657 5.67395 9.95051 8.10526 11.7975 7.00145L13.2745 8.47839C13.2822 8.61658 13.2964 8.76189 13.317 8.91433C12.1225 8.95125 10.95 9.24516 9.87926 9.77603C9.42137 9.63858 8.94967 9.55226 8.47278 9.51864L7.00151 8.04751C7.15505 7.78912 7.24565 7.49822 7.26596 7.19833C7.28628 6.89844 7.23575 6.59798 7.11846 6.32124C7.00118 6.04449 6.82042 5.79922 6.59081 5.60526C6.36119 5.41129 6.08916 5.27407 5.79671 5.20469C5.50425 5.13531 5.19957 5.13572 4.9073 5.20587C4.61503 5.27603 4.34336 5.41396 4.11426 5.60853C3.88516 5.80311 3.70505 6.04885 3.5885 6.32591C3.47195 6.60296 3.42221 6.90356 3.44333 7.20339C3.16998 7.18594 2.89606 7.22706 2.63989 7.324C2.38372 7.42094 2.15121 7.57147 1.9579 7.76551C0.376575 9.42395 2.45051 11.8553 4.29753 10.7515L5.76861 12.2225C5.80224 12.7001 5.8887 13.1724 6.02642 13.6308C5.14873 15.3472 4.92192 17.3233 5.38789 19.1939C5.13159 18.907 4.81764 18.6774 4.46655 18.5202C4.11545 18.3629 3.73513 18.2815 3.35042 18.2813H1.87503C1.75071 18.2813 1.63148 18.3307 1.54357 18.4186C1.45566 18.5065 1.40628 18.6257 1.40628 18.75V20.2254C1.4064 20.8905 1.6494 21.5327 2.08962 22.0313C1.75625 21.9938 1.41401 22.1151 1.40628 22.5C1.40768 23.5372 1.79068 24.5376 2.48226 25.3105C3.17384 26.0834 4.12565 26.5748 5.15628 26.6911V27.1875C5.15669 27.5603 5.30498 27.9178 5.56861 28.1814C5.83225 28.4451 6.18969 28.5934 6.56253 28.5938H23.4375C23.8104 28.5934 24.1678 28.4451 24.4314 28.1814C24.6951 27.9178 24.8434 27.5603 24.8438 27.1875V26.6911C25.8744 26.5748 26.8262 26.0834 27.5178 25.3105C28.2094 24.5376 28.5924 23.5372 28.5938 22.5C28.586 22.1156 28.244 21.9935 27.9104 22.0313C28.3507 21.5327 28.5937 20.8905 28.5938 20.2254V18.75C28.5938 18.6257 28.5444 18.5065 28.4565 18.4186C28.3686 18.3307 28.2493 18.2813 28.125 18.2813ZM25.7813 18.4244C25.2094 18.6188 24.7159 18.9934 24.375 19.492C24.1527 19.1658 23.8633 18.8908 23.5261 18.6855C23.189 18.4802 22.8118 18.3492 22.42 18.3014C22.2094 18.2637 20.8633 18.2874 20.625 18.2813C20.5007 18.2813 20.3815 18.3307 20.2936 18.4186C20.2057 18.5065 20.1563 18.6257 20.1563 18.75V20.2254C20.1604 20.8891 20.4014 21.5295 20.836 22.0313H9.16311C9.42886 21.7049 9.6261 21.3284 9.74305 20.9241C9.86 20.5199 9.89426 20.0962 9.84378 19.6784C11.1407 20.8055 12.2591 21.2974 13.6439 21.0096C13.683 21.0019 13.7221 20.9946 13.7611 20.9855C13.7705 20.983 13.7802 20.9797 13.7897 20.9771C14.6032 20.7593 15.3318 20.3005 15.8796 19.6609L15.8875 19.6529C15.8936 19.6475 15.899 19.6419 15.9044 19.636C16.5295 19.0936 16.9838 18.3815 17.2122 17.5861C17.2207 17.5565 17.231 17.5271 17.2385 17.4976C17.2452 17.469 17.2505 17.4402 17.2563 17.4115C17.8863 14.1014 13.836 11.499 11.1703 10.2476C12.7875 9.58595 16.443 9.91783 18.2813 9.84376C22.9143 9.88361 26.19 13.8244 25.7813 18.4244ZM22.8996 22.0313C22.4209 22.0307 21.9619 21.8402 21.6233 21.5017C21.2848 21.1632 21.0944 20.7042 21.0938 20.2254V19.2188H22.1004C22.5792 19.2193 23.0382 19.4098 23.3767 19.7483C23.7152 20.0869 23.9057 20.5459 23.9063 21.0246V22.0313H22.8996ZM6.25948 18.8269C5.96447 17.5224 6.04397 16.161 6.48884 14.8997C7.02558 16.1065 7.70947 17.2423 8.52495 18.2813C7.7287 18.184 6.9241 18.3777 6.25948 18.8269ZM7.05739 10.8074C7.19061 10.679 7.35185 10.5833 7.52839 10.5279C7.72691 10.4707 7.93245 10.4417 8.13903 10.4415C8.1649 10.4415 8.18834 10.4383 8.21478 10.4392C8.7431 10.4565 9.26613 10.5501 9.76761 10.7173C12.1916 11.5811 16.7088 14.0999 16.3479 17.1737C16.1532 18.2974 14.5301 19.9172 13.4063 20.1017C12.4493 20.2611 11.5883 19.8537 10.7844 19.2435C9.10803 17.9055 7.61961 15.4841 6.97039 13.5237C6.6567 12.5163 6.60987 11.6891 6.82976 11.16C6.88343 11.0295 6.96058 10.91 7.05739 10.8074ZM6.09378 21.0246C6.09581 20.6027 6.24501 20.1947 6.51564 19.8711C6.78627 19.5474 7.16137 19.3283 7.57625 19.2516C8.01861 19.2155 8.46267 19.2046 8.90628 19.2188V20.2254C8.90345 20.4732 8.85043 20.7179 8.75044 20.9447C8.65044 21.1715 8.50554 21.3756 8.32447 21.5448C7.75704 22.1306 6.83304 22.0328 6.09378 22.0313V21.0246ZM21.6668 9.62083C19.7274 8.62258 16.3766 8.9545 14.2603 8.90626C14.1153 8.01175 14.2455 7.4979 14.4522 7.19467C14.4745 7.16216 14.4985 7.13086 14.5241 7.10092C14.5416 7.08053 14.5591 7.06023 14.5773 7.04219C14.6393 6.98189 14.7083 6.92909 14.7827 6.88487C14.8597 6.84156 14.9408 6.80606 15.0249 6.77889C15.1544 6.74072 15.2869 6.71355 15.4209 6.69765C15.5565 6.67656 15.7132 6.70164 15.8547 6.67675C17.639 6.72705 20.3473 8.17005 22.1146 9.83425C21.9674 9.75869 21.8181 9.68755 21.6668 9.62083ZM11.8387 5.91095C11.7184 5.91083 11.6027 5.95704 11.5155 6.04C11.3805 6.1783 11.2074 6.27333 11.0183 6.31303C10.8291 6.35273 10.6325 6.3353 10.4532 6.26295C10.274 6.1906 10.1204 6.06661 10.0118 5.90672C9.9032 5.74684 9.8446 5.55828 9.84344 5.36501C9.84227 5.17174 9.89859 4.98249 10.0052 4.82131C10.1119 4.66013 10.264 4.53429 10.4424 4.45979C10.6207 4.38529 10.8172 4.36549 11.0068 4.40291C11.1964 4.44033 11.3706 4.53327 11.5073 4.66994C11.5942 4.75858 11.7127 4.80915 11.8368 4.81055C11.9609 4.81195 12.0805 4.76406 12.1694 4.67738C12.2582 4.59071 12.3091 4.47234 12.3108 4.34822C12.3125 4.22411 12.2648 4.10439 12.1784 4.01533C12.0401 3.88032 11.9451 3.70724 11.9054 3.51809C11.8657 3.32894 11.8831 3.13226 11.9554 2.95304C12.0278 2.77382 12.1518 2.62016 12.3117 2.51158C12.4715 2.40299 12.6601 2.3444 12.8534 2.34323C13.0466 2.34207 13.2359 2.39839 13.3971 2.50504C13.5583 2.61169 13.6841 2.76385 13.7586 2.94218C13.8331 3.12052 13.8529 3.31697 13.8155 3.50659C13.7781 3.6962 13.6851 3.87041 13.5485 4.00708C13.4606 4.09498 13.4112 4.2142 13.4112 4.33851C13.4112 4.46281 13.4606 4.58203 13.5485 4.66994L14.7556 5.87706C14.4343 5.98338 14.1423 6.16337 13.9031 6.40267C13.6638 6.64196 13.4838 6.93391 13.3774 7.25519L12.1703 6.04806C12.1268 6.00448 12.0751 5.96993 12.0182 5.9464C11.9613 5.92287 11.9003 5.91082 11.8387 5.91095ZM4.33873 9.66095C4.21833 9.66077 4.1025 9.70698 4.01529 9.79C3.88028 9.9283 3.70721 10.0233 3.51806 10.063C3.32891 10.1027 3.13223 10.0853 2.95301 10.013C2.77379 9.9406 2.62012 9.81661 2.51154 9.65672C2.40296 9.49684 2.34437 9.30828 2.3432 9.11501C2.34204 8.92174 2.39836 8.73249 2.50501 8.57131C2.61165 8.41013 2.76381 8.28429 2.94215 8.20979C3.12048 8.13529 3.31694 8.11549 3.50656 8.15291C3.69617 8.19033 3.87038 8.28327 4.00704 8.41994C4.09393 8.50858 4.21242 8.55915 4.33654 8.56055C4.46066 8.56195 4.58027 8.51406 4.66912 8.42738C4.75798 8.34071 4.80883 8.22234 4.81052 8.09822C4.81222 7.97411 4.76461 7.85439 4.67815 7.76533C4.53986 7.63032 4.44482 7.45724 4.40512 7.26809C4.36542 7.07894 4.38285 6.88226 4.4552 6.70304C4.52755 6.52382 4.65154 6.37016 4.81143 6.26158C4.97132 6.15299 5.15987 6.0944 5.35314 6.09323C5.54641 6.09207 5.73566 6.14839 5.89684 6.25504C6.05802 6.36169 6.18386 6.51385 6.25836 6.69218C6.33286 6.87052 6.35266 7.06697 6.31524 7.25659C6.27782 7.4462 6.18488 7.62041 6.04822 7.75708C5.96032 7.84498 5.91095 7.9642 5.91095 8.08851C5.91095 8.21281 5.96032 8.33203 6.04822 8.41994L7.25534 9.62706C6.93067 9.72698 6.63536 9.90479 6.39515 10.145C6.15495 10.3852 5.97713 10.6805 5.87722 11.0052L4.67014 9.79844C4.62668 9.75481 4.57503 9.72021 4.51816 9.69661C4.46128 9.67302 4.40031 9.6609 4.33873 9.66095ZM2.34378 20.2254V19.2188H3.35042C3.82918 19.2193 4.28817 19.4098 4.62671 19.7483C4.96525 20.0869 5.15569 20.5459 5.15628 21.0246V22.0313H4.14964C3.67087 22.0307 3.21188 21.8402 2.87335 21.5017C2.53481 21.1632 2.34436 20.7042 2.34378 20.2254ZM23.9063 27.1875C23.9062 27.3118 23.8568 27.431 23.7689 27.5189C23.681 27.6068 23.5618 27.6562 23.4375 27.6563H6.56253C6.43823 27.6562 6.31905 27.6068 6.23115 27.5189C6.14326 27.431 6.09385 27.3118 6.09378 27.1875V26.7188H23.9063V27.1875ZM24.375 25.7813H5.62503C4.83625 25.7803 4.07413 25.4956 3.47785 24.9793C2.88157 24.4629 2.4909 23.7493 2.3772 22.9688H27.6229C27.5092 23.7493 27.1185 24.4629 26.5222 24.9793C25.9259 25.4956 25.1638 25.7803 24.375 25.7813ZM24.8438 22.0313V21.0246C24.8463 20.7754 24.8998 20.5293 25.001 20.3015C25.1021 20.0737 25.2488 19.869 25.432 19.7C25.9981 19.1211 26.9215 19.2173 27.6563 19.2188V20.2254C27.6557 20.7042 27.4652 21.1632 27.1267 21.5017C26.7882 21.8402 26.3292 22.0307 25.8504 22.0313H24.8438Z" fill="#FFAE00"/>
</svg>
