<svg width="30" height="30" viewBox="0 0 30 30" fill="none" xmlns="http://www.w3.org/2000/svg">
    <path d="M29.6734 14.28C29.447 14.0042 29.1278 13.8462 28.7974 13.8462H28.6991C29.1445 12.9733 29.3867 11.9821 29.3867 10.9615C29.3867 8.66019 28.1778 6.58846 26.3426 5.67808C26.2995 2.53961 24.0469 0 21.2804 0C18.5145 0 16.2624 2.53788 16.2178 5.67519C16.1144 5.6475 16.008 5.63135 15.8996 5.63135C15.4492 5.63135 15.0251 5.88173 14.7662 6.30058L14.64 6.50481C14.5361 6.67212 14.3411 6.73269 14.1779 6.64615L13.9793 6.54115C13.5704 6.32423 13.0936 6.34962 12.703 6.60577C12.3124 6.86192 12.0555 7.32058 12.0149 7.83115L11.9952 8.07981C11.9881 8.16865 11.9536 8.29269 11.9085 8.42538C11.7925 8.3625 11.7094 8.23327 11.6973 8.07923L11.6775 7.83173C11.639 7.34712 11.4115 6.94558 11.0857 6.69115L12.6802 4.11462C12.9908 3.61212 13.1114 3 13.0182 2.39192C12.9254 1.78269 12.6316 1.2525 12.1908 0.898846C11.2767 0.166154 10.01 0.415385 9.36657 1.45615L6.44815 6.1725C6.35087 6.33 6.27892 6.50077 6.21964 6.67615C6.17252 6.67846 6.12236 6.67327 6.07068 6.64615L5.87206 6.54115C5.46318 6.32538 4.98539 6.35019 4.59576 6.60635C4.20562 6.8625 3.94874 7.32058 3.90821 7.83115L3.88845 8.07981C3.87223 8.28462 3.72986 8.44673 3.54999 8.46519L3.33212 8.48769C2.88372 8.53385 2.48091 8.82692 2.25595 9.27058C2.03048 9.71538 2.0092 10.2583 2.1987 10.725L2.2904 10.95C2.36641 11.1369 2.31422 11.3585 2.16627 11.4767L1.98742 11.6204C1.61907 11.9163 1.39917 12.3992 1.39917 12.9121C1.39917 13.2542 1.50456 13.5773 1.67885 13.8456H1.20258C0.872232 13.8456 0.553029 14.0037 0.326547 14.2794C0.0980385 14.5575 -0.0200159 14.936 0.00278434 15.3162C0.302734 20.3625 3.12185 22.8963 7.26287 25.1481C7.72496 25.3996 8.10648 25.8173 8.33803 26.3262C8.56401 26.8235 8.52803 27.465 8.23974 28.0108C8.02238 28.4215 8.0163 28.916 8.22352 29.3337C8.43075 29.7513 8.80569 30 9.22673 30H20.7738C21.1948 30 21.5697 29.7508 21.777 29.3337C21.9842 28.916 21.9781 28.4215 21.7557 28.0004C21.4725 27.4644 21.437 26.8235 21.6625 26.3267C21.8935 25.8179 22.275 25.3996 22.7376 25.1481C26.8776 22.8963 29.6973 20.3631 29.9977 15.3167C30.02 14.936 29.9014 14.5581 29.6734 14.28ZM28.3738 10.9615C28.3738 12.0115 28.0572 13.0263 27.478 13.8462H24.8271V11.5385C24.8271 11.2194 24.6007 10.9615 24.3205 10.9615C24.0403 10.9615 23.8138 11.2194 23.8138 11.5385V13.8462H22.0247C22.0658 13.7827 22.1012 13.7158 22.1332 13.6465C22.1347 13.6437 22.1367 13.6408 22.1382 13.6379C22.1828 13.5398 22.2147 13.4348 22.2406 13.3281C22.2472 13.3015 22.2527 13.275 22.2578 13.2473C22.2786 13.1377 22.2933 13.0263 22.2933 12.9121C22.2933 12.3987 22.0734 11.9163 21.7055 11.6221L21.589 11.5281C21.6295 11.5252 21.6685 11.5177 21.7086 11.5142C21.7694 11.5085 21.8302 11.5015 21.8905 11.4929C21.9903 11.479 22.0891 11.4617 22.1869 11.4415C22.2446 11.4294 22.3029 11.4185 22.3602 11.404C22.4655 11.3781 22.5694 11.3458 22.6723 11.3123C22.7184 11.2973 22.765 11.2852 22.8106 11.2685C22.955 11.216 23.0963 11.1577 23.2347 11.0913C23.2732 11.0729 23.3097 11.051 23.3471 11.0313C23.4475 10.98 23.5473 10.9269 23.6441 10.8681C23.6983 10.8352 23.751 10.7994 23.8037 10.7642C23.8812 10.7129 23.9582 10.661 24.0332 10.605C24.0889 10.5635 24.1436 10.5208 24.1979 10.4769C24.2663 10.4215 24.3336 10.3638 24.3995 10.305C24.4537 10.2565 24.5074 10.2087 24.5596 10.1579C24.6219 10.0973 24.6812 10.0338 24.741 9.97038C24.7922 9.91615 24.8439 9.8625 24.893 9.80596C24.9492 9.74077 25.0014 9.67154 25.0546 9.60346C25.1555 9.47481 25.2507 9.34154 25.3414 9.2025C25.3733 9.15346 25.4073 9.10615 25.4382 9.05539C25.4934 8.96481 25.5441 8.87077 25.5947 8.77731C25.6201 8.73 25.6464 8.68327 25.6707 8.63481C25.7219 8.53385 25.769 8.43058 25.8146 8.32615C25.8324 8.28462 25.8501 8.24365 25.8673 8.20154C25.9145 8.08673 25.9585 7.97077 25.9991 7.85192C26.0077 7.82654 26.0158 7.8 26.0239 7.77462C26.1156 7.49365 26.1936 7.20519 26.2463 6.90635C27.5404 7.70308 28.3738 9.25327 28.3738 10.9615ZM21.2804 1.15385C23.5154 1.15385 25.3338 3.22442 25.3338 5.76923C25.3338 5.85635 25.3272 5.94173 25.3227 6.02769C25.3227 6.02769 25.3211 6.03115 25.3211 6.03346C25.2912 6.63981 25.1585 7.21269 24.9437 7.7325C24.9416 7.73769 24.9396 7.74288 24.9376 7.74808C24.8879 7.8675 24.8332 7.98288 24.775 8.09654C24.7679 8.11038 24.7613 8.12423 24.7542 8.13808C24.7 8.24135 24.6412 8.34173 24.5799 8.43923C24.5667 8.46058 24.554 8.48192 24.5409 8.50269C24.4836 8.59154 24.4223 8.67692 24.3595 8.76058C24.3397 8.78712 24.3205 8.81423 24.3002 8.84019C24.2409 8.91635 24.1781 8.98846 24.1143 9.06C24.0879 9.09 24.0621 9.12 24.0347 9.14942C23.9739 9.21404 23.9101 9.27462 23.8457 9.33519C23.8128 9.36635 23.7804 9.39808 23.7464 9.4275C23.6841 9.48173 23.6197 9.5325 23.5549 9.58327C23.5159 9.61385 23.4774 9.645 23.4368 9.67385C23.3735 9.71942 23.3081 9.76038 23.2428 9.80192C23.1982 9.83019 23.1536 9.85962 23.108 9.88615C23.0442 9.92308 22.9783 9.95596 22.9129 9.98885C22.8628 10.0142 22.8131 10.0408 22.7619 10.0633C22.6976 10.0921 22.6317 10.1169 22.5659 10.1417C22.5106 10.1631 22.4564 10.185 22.4002 10.2035C22.3363 10.2248 22.2705 10.241 22.2051 10.2583C22.1448 10.2744 22.085 10.2917 22.0237 10.305C21.9604 10.3183 21.896 10.3269 21.8322 10.3373C21.7668 10.3477 21.702 10.3587 21.6361 10.3656C21.6235 10.3667 21.6103 10.3667 21.5971 10.3679C21.5981 10.3604 21.5981 10.3529 21.5991 10.3454C21.6159 10.241 21.6214 10.1354 21.6194 10.0298C21.6189 9.99577 21.6153 9.96288 21.6128 9.92885C21.6067 9.84577 21.5946 9.76442 21.5773 9.68365C21.5703 9.65135 21.5647 9.61904 21.5556 9.58731C21.5257 9.47885 21.4887 9.37212 21.4375 9.27173C21.212 8.8275 20.8097 8.535 20.3613 8.48885L20.143 8.46635C20.0087 8.4525 19.8952 8.35846 19.8395 8.22577L20.9222 6.99346C21.1203 6.76788 21.1203 6.40327 20.9222 6.17769C20.7241 5.95212 20.4039 5.95212 20.2058 6.17769L19.4828 7.00096C19.3759 6.84692 19.2502 6.70846 19.0972 6.6075C18.9948 6.54 18.8859 6.49096 18.7744 6.45577C18.7369 6.44365 18.6989 6.4425 18.6609 6.43442C18.5849 6.41769 18.51 6.40212 18.4329 6.40038C18.4233 6.40038 18.4137 6.39577 18.4041 6.39577C18.3458 6.39577 18.2885 6.40846 18.2308 6.41711C18.1948 6.42231 18.1588 6.42231 18.1234 6.43038C18.02 6.45462 17.9187 6.49039 17.8209 6.54173L17.6233 6.64615C17.5726 6.67269 17.5189 6.68308 17.4647 6.68077C17.4617 6.68077 17.4591 6.68019 17.4561 6.68019C17.4029 6.67615 17.3497 6.65942 17.301 6.62885C17.2519 6.33692 17.2271 6.04846 17.2271 5.76923C17.2271 3.22442 19.045 1.15385 21.2804 1.15385ZM13.0045 8.18423L13.0242 7.93558C13.0349 7.79596 13.1028 7.67538 13.2097 7.60558C13.3161 7.53577 13.4417 7.52827 13.5532 7.58827L13.7528 7.69385C14.3603 8.01346 15.0828 7.7925 15.4684 7.17L15.5946 6.96577C15.7369 6.73558 16.0643 6.73731 16.2056 6.96519L16.3318 7.16942C16.5902 7.58654 16.9996 7.81788 17.4247 7.83231C17.4297 7.83231 17.4343 7.83231 17.4394 7.83231C17.5007 7.83346 17.5625 7.83231 17.6238 7.82423C17.6527 7.82077 17.681 7.81327 17.7099 7.8075C17.7515 7.79885 17.7925 7.7925 17.8336 7.77981C17.9065 7.75731 17.9785 7.72904 18.0484 7.69212L18.2465 7.58712C18.3585 7.52827 18.4841 7.53462 18.59 7.60442C18.6964 7.67481 18.7643 7.79481 18.775 7.935L18.7947 8.1825C18.8555 8.94288 19.384 9.54519 20.0513 9.61327L20.2691 9.63577C20.3922 9.64788 20.4981 9.72519 20.5594 9.84692C20.6213 9.96808 20.6268 10.1112 20.5752 10.2375L20.4819 10.466C20.4779 10.4763 20.4764 10.4856 20.4728 10.496C20.2924 10.9667 20.3299 11.49 20.5437 11.9135C20.5468 11.9192 20.5498 11.9256 20.5529 11.9313C20.5802 11.9838 20.6091 12.034 20.642 12.0831C20.6598 12.1102 20.6795 12.135 20.6988 12.161C20.7236 12.1933 20.7474 12.2267 20.7748 12.2567C20.8265 12.315 20.8817 12.3698 20.9425 12.4183L21.1224 12.5631C21.2227 12.645 21.2804 12.7719 21.2804 12.9121C21.2804 13.0523 21.2227 13.1787 21.1224 13.2594L20.942 13.4037C20.9405 13.4048 20.9394 13.4065 20.9374 13.4083C20.8716 13.4619 20.8113 13.5225 20.755 13.5883C20.7327 13.6142 20.7135 13.6437 20.6927 13.6713C20.6623 13.7123 20.6324 13.7538 20.6061 13.7983C20.5959 13.815 20.5828 13.8294 20.5731 13.8467H13.918C13.959 13.7833 13.9945 13.7158 14.0269 13.6465C14.0285 13.6437 14.03 13.6413 14.0315 13.6385C14.0761 13.5398 14.1085 13.4348 14.1343 13.3275C14.1409 13.301 14.146 13.275 14.1511 13.2485C14.1723 13.1394 14.1865 13.0281 14.187 12.9144V12.9133C14.187 12.8394 14.1729 12.769 14.1642 12.6969C14.1577 12.6438 14.1587 12.589 14.147 12.5371C14.11 12.3652 14.0396 12.2077 13.9555 12.06C13.8602 11.8933 13.7452 11.7404 13.5988 11.6227L13.4194 11.4785C13.272 11.3602 13.2203 11.1392 13.2958 10.9535L13.3885 10.7267C13.4336 10.616 13.4645 10.5 13.4858 10.3823C13.4924 10.3471 13.4924 10.3119 13.4964 10.2767C13.5066 10.1937 13.5142 10.1112 13.5127 10.0281C13.5117 9.98481 13.5056 9.94212 13.5015 9.89885C13.4944 9.82442 13.4858 9.75058 13.4696 9.67788C13.459 9.63058 13.4448 9.58558 13.4306 9.53942C13.4184 9.50135 13.4123 9.46154 13.3982 9.42404C13.3895 9.40154 13.3743 9.38481 13.3647 9.36346C13.352 9.33404 13.3455 9.30231 13.3313 9.27346C13.3044 9.22096 13.2679 9.17769 13.236 9.12923C13.2097 9.08885 13.1864 9.04673 13.157 9.00923C13.0957 8.93135 13.0258 8.865 12.9528 8.80327C12.931 8.78481 12.9148 8.75885 12.892 8.74212C12.9447 8.56673 12.9893 8.37404 13.0045 8.18423ZM10.1955 2.12135C10.5172 1.60096 11.1511 1.47635 11.6076 1.84269C11.8275 2.01923 11.9744 2.28462 12.0205 2.58923C12.0666 2.89442 12.0073 3.20077 11.8523 3.45058L9.87578 6.64442C9.87578 6.64442 9.87527 6.64442 9.87527 6.645L8.93337 8.16635C8.77833 8.41731 8.54577 8.58462 8.27824 8.63712C8.01123 8.68789 7.74168 8.62212 7.52178 8.445C7.52077 8.44442 7.52026 8.44327 7.51925 8.44269C7.4468 8.38442 7.386 8.31346 7.33077 8.23846C7.31658 8.21942 7.30341 8.19923 7.29023 8.17904C7.2421 8.10346 7.20055 8.02327 7.16965 7.93731C7.16762 7.93154 7.16458 7.92692 7.16255 7.92115C7.13165 7.83 7.11442 7.73365 7.10429 7.63558C7.10175 7.61077 7.10074 7.58596 7.09922 7.56115C7.09466 7.46308 7.09719 7.36327 7.11543 7.26346C7.1433 7.11231 7.1965 6.9675 7.27656 6.83827L10.1955 2.12135ZM2.74996 13.4031L2.57059 13.2594C2.46977 13.1787 2.41201 13.0523 2.41201 12.9115C2.41201 12.7708 2.46977 12.6444 2.57059 12.5631L2.74894 12.42C3.29767 11.981 3.49122 11.1588 3.20951 10.4642L3.1178 10.2392C3.06561 10.1117 3.07169 9.96865 3.133 9.84692C3.19481 9.72577 3.3002 9.64846 3.42332 9.63635L3.64068 9.61385C4.30848 9.54577 4.83693 8.94404 4.89773 8.18365L4.91749 7.935C4.92813 7.79538 4.99603 7.67538 5.10243 7.605C5.20832 7.53519 5.33448 7.52885 5.44595 7.58769L5.64558 7.69327C5.79049 7.76942 5.94401 7.81385 6.10006 7.82769C6.10158 7.83981 6.10614 7.85192 6.10817 7.86404C6.10969 7.87442 6.10868 7.88481 6.1102 7.89462C6.12033 7.96038 6.14161 8.02096 6.1563 8.085C6.17353 8.15942 6.18671 8.235 6.21001 8.30769C6.23788 8.39308 6.27639 8.47212 6.31236 8.55289C6.33668 8.60712 6.35543 8.66308 6.3838 8.715C6.43345 8.80673 6.49425 8.88981 6.55506 8.97289C6.5809 9.00808 6.60116 9.04673 6.62852 9.08019C6.72175 9.19269 6.8246 9.29654 6.9381 9.38712C7.03791 9.46731 7.14431 9.53308 7.25274 9.59077C7.2872 9.60865 7.32216 9.62308 7.35762 9.63865C7.43514 9.67385 7.51368 9.70385 7.59424 9.7275C7.63477 9.73962 7.6748 9.75115 7.71635 9.75981C7.80197 9.77885 7.88861 9.78981 7.97627 9.79615C8.0092 9.79846 8.04112 9.80423 8.07406 9.80481C8.08267 9.80481 8.09078 9.80712 8.09939 9.80712C8.21643 9.80712 8.33398 9.79558 8.45153 9.7725C8.98606 9.66635 9.45169 9.33173 9.76228 8.82981L10.5076 7.62519C10.5922 7.68923 10.6576 7.79308 10.6687 7.935L10.6885 8.1825C10.7493 8.94288 11.2777 9.54462 11.945 9.61327L12.1629 9.63577C12.2105 9.64038 12.2521 9.66288 12.2926 9.68538C12.3124 9.69692 12.3321 9.70731 12.3499 9.72289C12.3772 9.74596 12.3995 9.77596 12.4203 9.80712C12.4335 9.82673 12.4481 9.84462 12.4583 9.86712C12.4826 9.92135 12.4998 9.97846 12.5024 10.0373C12.5024 10.0396 12.5019 10.0431 12.5019 10.0454C12.5039 10.11 12.4932 10.1758 12.4684 10.2369L12.3757 10.4637C12.2698 10.7238 12.2313 11.0019 12.2531 11.2713C12.2536 11.2748 12.2546 11.2783 12.2546 11.2823C12.2622 11.3683 12.2749 11.4531 12.2946 11.5367C12.3762 11.884 12.5616 12.199 12.8352 12.4183L12.9584 12.5169L13.0146 12.5619C13.1159 12.6456 13.1737 12.7719 13.1737 12.9121C13.1737 12.9825 13.1595 13.0488 13.1322 13.1083C13.1246 13.1256 13.1083 13.136 13.0982 13.1521C13.0739 13.1913 13.0506 13.2312 13.0146 13.26L13.008 13.2652L12.8347 13.4037C12.7653 13.4596 12.7015 13.5242 12.6427 13.5935C12.6245 13.6148 12.6098 13.639 12.5931 13.661C12.5545 13.7117 12.5176 13.7637 12.4846 13.8196C12.4791 13.8288 12.4715 13.8369 12.4664 13.8462H3.11932C3.02254 13.6731 2.8974 13.5213 2.74996 13.4031ZM22.3009 24.1067C21.6407 24.4656 21.0945 25.0656 20.7621 25.7965C20.3755 26.6469 20.4237 27.7194 20.8923 28.6056C20.9268 28.6713 20.9126 28.729 20.8938 28.7654C20.8756 28.8017 20.8401 28.8462 20.7728 28.8462H9.22673C9.15985 28.8462 9.12388 28.8023 9.10564 28.7654C9.0874 28.729 9.07271 28.6713 9.11273 28.5952C9.57634 27.7188 9.62447 26.6463 9.23788 25.7954C8.90601 25.0644 8.35931 24.4644 7.69963 24.1062C3.77039 21.9704 1.28162 19.7417 1.0141 15.2388C1.00903 15.1529 1.04551 15.0946 1.0673 15.0675C1.09263 15.0363 1.13671 15 1.20309 15H2.79708H12.7896H20.8964H20.9283H27.7121H28.7979C28.8638 15 28.9079 15.0363 28.9337 15.0675C28.9555 15.0946 28.992 15.1523 28.9864 15.2388C28.7184 19.7417 26.2296 21.9704 22.3009 24.1067Z" fill="#FFAE00"/>
    <path d="M18.7471 24.8077H14.3355C14.0558 24.8077 13.8289 25.0651 13.8289 25.3835C13.8289 25.702 14.0558 25.9593 14.3355 25.9593H18.7471C19.0268 25.9593 19.2538 25.702 19.2538 25.3835C19.2538 25.0651 19.0268 24.8077 18.7471 24.8077Z" fill="#FFAE00"/>
    <path d="M11.147 25.9593H12.8626C13.1423 25.9593 13.3693 25.702 13.3693 25.3835C13.3693 25.0651 13.1423 24.8077 12.8626 24.8077H11.147C10.8673 24.8077 10.6403 25.0651 10.6403 25.3835C10.6403 25.702 10.8668 25.9593 11.147 25.9593Z" fill="#FFAE00"/>
    <path d="M18.7471 26.5385H11.147C10.8673 26.5385 10.6403 26.7958 10.6403 27.1143C10.6403 27.4327 10.8673 27.6901 11.147 27.6901H18.7471C19.0267 27.6901 19.2537 27.4327 19.2537 27.1143C19.2537 26.7958 19.0267 26.5385 18.7471 26.5385Z" fill="#FFAE00"/>
    <path d="M20.2058 5.36136C20.3046 5.47386 20.4343 5.5304 20.564 5.5304C20.6937 5.5304 20.8234 5.47386 20.9222 5.36136C21.1203 5.13579 21.1203 4.77117 20.9222 4.54559L19.4889 2.91406C19.2907 2.68848 18.9705 2.68848 18.7724 2.91406C18.5743 3.13963 18.5743 3.50425 18.7724 3.72982L20.2058 5.36136Z" fill="#FFAE00"/>
    <path d="M23.0715 8.62443C23.1703 8.73693 23.3 8.79346 23.4297 8.79346C23.5594 8.79346 23.6891 8.73693 23.788 8.62443C23.9861 8.39885 23.9856 8.03423 23.788 7.80866L22.3546 6.17712C22.1565 5.95154 21.8363 5.95154 21.6381 6.17712C21.44 6.40269 21.44 6.76731 21.6381 6.99289L23.0715 8.62443Z" fill="#FFAE00"/>
    <path d="M21.9968 5.5304C22.1266 5.5304 22.2563 5.47386 22.3551 5.36136L23.7884 3.72982C23.986 3.50425 23.9865 3.13963 23.7884 2.91406C23.5903 2.68848 23.2701 2.68848 23.072 2.91406L21.6386 4.54559C21.4405 4.77117 21.4405 5.13579 21.6386 5.36136C21.7374 5.47386 21.8671 5.5304 21.9968 5.5304Z" fill="#FFAE00"/>
    <path d="M24.8271 10.3835C24.8271 10.7019 25.0536 10.9593 25.3338 10.9593H27.3605C27.6407 10.9593 27.8672 10.7019 27.8672 10.3835C27.8672 10.0651 27.6407 9.80771 27.3605 9.80771H25.3338C25.0536 9.80771 24.8271 10.0651 24.8271 10.3835Z" fill="#FFAE00"/>
    <path d="M15.4537 10.6724C15.5834 10.6724 15.7131 10.6159 15.8119 10.5034L16.5719 9.63832C16.77 9.41282 16.77 9.04834 16.5719 8.82284C16.3738 8.59734 16.0536 8.59734 15.8555 8.82284L15.0955 9.68792C14.8974 9.91341 14.8974 10.2779 15.0955 10.5034C15.1943 10.6159 15.324 10.6724 15.4537 10.6724Z" fill="#FFAE00"/>
    <path d="M17.8822 11.9458C17.981 12.0582 18.1107 12.1148 18.2404 12.1148C18.3701 12.1148 18.4998 12.0582 18.5986 11.9458C18.7967 11.7203 18.7967 11.3558 18.5986 11.1303L18.0919 10.5536C17.8938 10.3281 17.5736 10.3281 17.3755 10.5536C17.1774 10.7791 17.1774 11.1436 17.3755 11.3691L17.8822 11.9458Z" fill="#FFAE00"/>
    <path d="M15.8555 11.7075L15.3488 12.2842C15.1507 12.5097 15.1507 12.8742 15.3488 13.0996C15.4476 13.2121 15.5773 13.2686 15.7071 13.2686C15.8368 13.2686 15.9665 13.2121 16.0653 13.0996L16.5719 12.5229C16.7701 12.2974 16.7701 11.9329 16.5719 11.7075C16.3738 11.482 16.0531 11.482 15.8555 11.7075Z" fill="#FFAE00"/>
</svg>
